<svg width="16" height="16" fill="none" xmlns="http://www.w3.org/2000/svg"><path d="M9.65 1.884a6.325 6.325 0 0 1 2.82 1.63l-.175 1.549c-.033.29.128.57.396.686l1.43.623a6.342 6.342 0 0 1 0 3.255l-1.43.624a.668.668 0 0 0-.396.687l.175 1.548a6.323 6.323 0 0 1-2.82 1.629l-1.254-.927a.668.668 0 0 0-.792 0l-1.255.926a6.324 6.324 0 0 1-2.82-1.63l.176-1.546a.668.668 0 0 0-.396-.687l-1.43-.623a6.341 6.341 0 0 1 0-3.257l1.43-.622a.668.668 0 0 0 .396-.686L3.53 3.514a6.326 6.326 0 0 1 2.82-1.629l1.255.927a.668.668 0 0 0 .792 0l1.254-.928Z" fill="#fff"/><path d="m9.65 1.884.13-.483a.5.5 0 0 0-.427.081l.297.402Zm2.82 1.63.497.055a.5.5 0 0 0-.144-.41l-.353.354Zm-.175 1.549.497.056-.497-.056Zm.396.686-.2.459.2-.459Zm1.43.623.483-.128a.5.5 0 0 0-.283-.33l-.2.458ZM14.334 8h.5-.5Zm-.213 1.627.2.459a.5.5 0 0 0 .283-.33l-.483-.129Zm-1.43.624-.2-.458.2.458Zm-.396.687.497-.056-.497.056Zm.175 1.548.353.354a.5.5 0 0 0 .144-.41l-.497.056Zm-2.82 1.629-.297.402a.5.5 0 0 0 .427.08l-.13-.482Zm-1.254-.927.298-.402-.298.402Zm-.792 0 .296.402-.296-.402Zm-1.255.926-.13.482a.5.5 0 0 0 .426-.08l-.296-.402Zm-2.82-1.63-.497-.056a.5.5 0 0 0 .144.41l.353-.353Zm.176-1.546.497.056-.497-.056Zm-.396-.687-.2.459.2-.459Zm-1.43-.623-.483.129a.5.5 0 0 0 .283.33l.2-.459ZM1.667 8h-.5.5Zm.212-1.629-.2-.458a.5.5 0 0 0-.283.33l.483.128Zm1.43-.622.2.459-.2-.459Zm.396-.686.497-.056-.497.056ZM3.53 3.514l-.353-.354a.5.5 0 0 0-.144.41l.497-.056Zm2.82-1.629.297-.402a.5.5 0 0 0-.427-.08l.13.482Zm1.255.927L7.9 2.41l-.297.402Zm.792 0 .297.402-.297-.402Zm1.254-.928-.13.483a5.826 5.826 0 0 1 2.597 1.5l.353-.354.353-.354A6.826 6.826 0 0 0 9.78 1.4l-.13.483Zm2.82 1.63-.497-.057-.175 1.55.497.056.497.056.175-1.55-.497-.056Zm-.175 1.549-.497-.056c-.057.509.225.996.693 1.2l.2-.458.2-.458a.168.168 0 0 1-.1-.172l-.496-.056Zm.396.686-.2.459 1.43.623.2-.459.2-.458-1.43-.623-.2.458Zm1.43.623-.483.129c.127.479.196.981.196 1.5h1c0-.608-.081-1.197-.23-1.757l-.483.128ZM14.334 8h-.5c0 .518-.07 1.02-.196 1.5l.483.127.483.128c.149-.56.23-1.147.23-1.755h-.5Zm-.213 1.627-.2-.458-1.43.624.2.458.2.459 1.43-.624-.2-.459Zm-1.43.624-.2-.458c-.468.205-.75.692-.693 1.201l.497-.056.497-.056a.168.168 0 0 1 .1-.172l-.2-.459Zm-.396.687-.497.056.175 1.548.497-.056.497-.056-.175-1.548-.497.056Zm.175 1.548-.353-.354a5.823 5.823 0 0 1-2.597 1.5l.13.483.13.482a6.823 6.823 0 0 0 3.043-1.757l-.353-.354Zm-2.82 1.629.298-.402-1.254-.927-.298.402-.297.402 1.254.927.297-.402Zm-1.254-.927.297-.402a1.168 1.168 0 0 0-1.387 0l.298.402.297.402a.168.168 0 0 1 .199 0l.296-.402Zm-.792 0-.297-.402-1.255.925.297.403.296.402L7.9 13.59l-.296-.402Zm-1.255.926.13-.483a5.824 5.824 0 0 1-2.597-1.5l-.353.354-.353.354a6.824 6.824 0 0 0 3.043 1.757l.13-.482Zm-2.82-1.63.497.057.176-1.547-.497-.056-.497-.057-.176 1.547.497.057Zm.176-1.546.497.056a1.167 1.167 0 0 0-.694-1.201l-.2.458-.2.459c.068.029.108.1.1.172l.497.056Zm-.396-.687.2-.458-1.43-.623-.2.458-.2.459 1.43.623.2-.459Zm-1.43-.623.483-.128A5.842 5.842 0 0 1 2.167 8h-1c0 .607.08 1.196.229 1.757l.483-.129ZM1.667 8h.5c0-.519.068-1.022.195-1.5L1.88 6.37l-.483-.128A6.845 6.845 0 0 0 1.167 8h.5Zm.212-1.629.2.459 1.43-.622-.2-.459-.2-.458-1.43.622.2.458Zm1.43-.622.2.459c.469-.205.75-.692.693-1.201l-.497.056-.497.056a.168.168 0 0 1-.1.172l.2.458Zm.396-.686.497-.057-.176-1.548-.497.056-.497.056.176 1.55.497-.057ZM3.53 3.514l.353.354a5.826 5.826 0 0 1 2.597-1.5l-.13-.483-.13-.483A6.826 6.826 0 0 0 3.176 3.16l.353.354Zm2.82-1.629-.297.402 1.254.927.298-.402.297-.402-1.255-.927-.297.402Zm1.255.927-.298.402c.413.305.976.304 1.387 0l-.297-.402L8.1 2.41a.168.168 0 0 1-.2 0l-.296.402Zm.792 0 .298.402 1.254-.928-.298-.402-.297-.402-1.254.928.297.402Z" fill="#000"/><circle cx="8" cy="8" r="2" fill="#fff" stroke="#000"/></svg>